<svg
  viewBox="0 0 900 600"
  xmlns="http://www.w3.org/2000/svg"
  preserveAspectRatio="xMidYMid slice"
>
  <!-- Layer 1 -->
  <g>
    <path d="M314 600L316.8 591.7C319.7 583.3 325.3 566.7 353 550C380.7 533.3 430.3 516.7 449.8 500C469.3 483.3 458.7 466.7 434.2 450C409.7 433.3 371.3 416.7 360 400C348.7 383.3 364.3 366.7 376.8 350C389.3 333.3 398.7 316.7 384 300C369.3 283.3 330.7 266.7 341.8 250C353 233.3 414 216.7 413.2 200C412.3 183.3 349.7 166.7 345 150C340.3 133.3 393.7 116.7 402.3 100C411 83.3 375 66.7 358 50C341 33.3 343 16.7 344 8.3L345 0L900 0L900 600Z" fill="#565656"/>
    <animateTransform
      attributeName="transform"
      type="translate"
      dur="12s"
      repeatCount="indefinite"
      values="0 0; -14 0; 0 0; 14 0; 0 0"
      keyTimes="0; 0.25; 0.5; 0.75; 1"
      calcMode="spline"
      keySplines="0.4 0 0.6 1; 0.4 0 0.6 1; 0.4 0 0.6 1; 0.4 0 0.6 1"
    />
  </g>

  <!-- Layer 2 -->
  <g>
    <path d="M451 600L444.8 591.7C438.7 583.3 426.3 566.7 419.2 550C412 533.3 410 516.7 413.8 500C417.7 483.3 427.3 466.7 453.2 450C479 433.3 521 416.7 522.8 400C524.7 383.3 486.3 366.7 483.7 350C481 333.3 514 316.7 507.8 300C501.7 283.3 456.3 266.7 437.3 250C418.3 233.3 425.7 216.7 437.7 200C449.7 183.3 466.3 166.7 473 150C479.7 133.3 476.3 116.7 481 100C485.7 83.3 498.3 66.7 488.7 50C479 33.3 447 16.7 431 8.3L415 0L900 0L900 600Z" fill="#404040"/>
    <animateTransform
      attributeName="transform"
      type="translate"
      dur="14s"
      repeatCount="indefinite"
      values="0 0; 12 0; 0 0; -12 0; 0 0"
      keyTimes="0; 0.25; 0.5; 0.75; 1"
      calcMode="spline"
      keySplines="0.4 0 0.6 1; 0.4 0 0.6 1; 0.4 0 0.6 1; 0.4 0 0.6 1"
    />
  </g>

  <!-- Layer 3 -->
  <g>
    <path d="M533 600L533 591.7C533 583.3 533 566.7 539.2 550C545.3 533.3 557.7 516.7 565.2 500C572.7 483.3 575.3 466.7 570.3 450C565.3 433.3 552.7 416.7 550.8 400C549 383.3 558 366.7 572.2 350C586.3 333.3 605.7 316.7 606.2 300C606.7 283.3 588.3 266.7 575.2 250C562 233.3 554 216.7 565.2 200C576.3 183.3 606.7 166.7 619.5 150C632.3 133.3 627.7 116.7 626.7 100C625.7 83.3 628.3 66.7 635.5 50C642.7 33.3 654.3 16.7 660.2 8.3L666 0L900 0L900 600Z" fill="#2c2c2c"/>
    <animateTransform
      attributeName="transform"
      type="translate"
      dur="16s"
      repeatCount="indefinite"
      values="0 0; -10 0; 0 0; 10 0; 0 0"
      keyTimes="0; 0.25; 0.5; 0.75; 1"
      calcMode="spline"
      keySplines="0.4 0 0.6 1; 0.4 0 0.6 1; 0.4 0 0.6 1; 0.4 0 0.6 1"
    />
  </g>

  <!-- Layer 4 -->
  <g>
    <path d="M745 600L738.8 591.7C732.7 583.3 720.3 566.7 710.7 550C701 533.3 694 516.7 700.7 500C707.3 483.3 727.7 466.7 733.3 450C739 433.3 730 416.7 717.8 400C705.7 383.3 690.3 366.7 694.8 350C699.3 333.3 723.7 316.7 730.2 300C736.7 283.3 725.3 266.7 726.3 250C727.3 233.3 740.7 216.7 744 200C747.3 183.3 740.7 166.7 728.7 150C716.7 133.3 699.3 116.7 696.7 100C694 83.3 706 66.7 716.8 50C727.7 33.3 737.3 16.7 742.2 8.3L747 0L900 0L900 600Z" fill="#191919"/>
    <animateTransform
      attributeName="transform"
      type="translate"
      dur="18s"
      repeatCount="indefinite"
      values="0 0; 8 0; 0 0; -8 0; 0 0"
      keyTimes="0; 0.25; 0.5; 0.75; 1"
      calcMode="spline"
      keySplines="0.4 0 0.6 1; 0.4 0 0.6 1; 0.4 0 0.6 1; 0.4 0 0.6 1"
    />
  </g>
</svg>
