<svg data-testid="adapt-logo-circle" aria-label="Adapt logo" role="img" viewBox="0 0 85 85" xmlns="http://www.w3.org/2000/svg" fill="none" class="w-12 text-base-pure-white mix-blend-difference md:w-10 lg:w-11"><path d="M65.336 59.287 44.057 16.712h-5.494l-.264.591-18.919 42.59 2.365 4.738.274.549h5.505l4.739-10.64h19.922l5.024 10.038.31.62h5.432l2.373-4.747.296-.6-.284-.564ZM43.319 17.894 64.006 59.27h-3.399L55.583 49.22l-.295-.591H34.896l1.58-3.547h17.039L39.92 17.894h3.399Zm-6.332 26.007 4.654-10.449 5.224 10.45h-9.878ZM20.677 59.86l18.308-41.183 12.609 25.224h-3.399l-5.922-11.846-.199-.395-2.841-5.683L22.37 63.242l-1.692-3.382Zm10.813-6.502-4.739 10.64h-3.425l15.959-35.273 1.67 3.358-5.266 11.821-.198.443-1.907 4.286-.197.443-.208.468h.009l-.12.27h20.89l-1.773 3.546-20.695-.002Zm21.722.591 1.703-3.398 4.654 9.309-1.704 3.406-4.653-9.317Zm9.003 10.066h-3.399l1.774-3.546h3.398l-1.773 3.546Z" fill="currentColor"></path><rect width="83.841" height="83.841" x=".58" y=".58" stroke="currentColor" stroke-width="1.159" rx="41.92"></rect></svg>