<?xml version="1.0" standalone="no"?>
<!DOCTYPE svg PUBLIC "-//W3C//DTD SVG 20010904//EN"
 "http://www.w3.org/TR/2001/REC-SVG-20010904/DTD/svg10.dtd">
<svg version="1.0" xmlns="http://www.w3.org/2000/svg"
 width="450.000000pt" height="450.000000pt" viewBox="0 0 450.000000 450.000000"
 preserveAspectRatio="xMidYMid meet">
<metadata>
Created by potrace 1.11, written by Peter Selinger 2001-2013
</metadata>
<g transform="translate(0.000000,450.000000) scale(0.100000,-0.100000)"
fill="#006dff" stroke="none">
<path d="M1305 4263 c-141 -31 -269 -110 -347 -214 -21 -28 -605 -1032 -682
-1174 -12 -22 -58 -101 -101 -175 -123 -212 -126 -218 -150 -295 -19 -60 -23
-93 -20 -177 3 -126 20 -177 110 -334 36 -63 77 -136 92 -162 14 -26 44 -75
65 -110 21 -34 38 -64 38 -66 0 -2 43 -77 95 -166 52 -89 95 -164 95 -167 0
-3 8 -17 18 -31 11 -15 33 -52 49 -82 17 -30 97 -170 178 -310 81 -140 156
-271 167 -290 68 -121 175 -210 314 -263 l59 -22 960 0 960 0 65 24 c94 34
147 68 215 136 63 62 53 45 565 935 59 102 169 293 245 425 77 132 149 265
162 295 43 108 50 238 18 363 -12 46 -47 113 -178 339 -68 117 -135 233 -149
258 -14 25 -59 104 -100 175 -42 72 -86 149 -99 172 -348 612 -394 687 -464
757 -47 48 -92 81 -136 103 -135 65 -90 63 -1104 62 -506 -1 -929 -3 -940 -6z
m1145 -607 c25 -4 61 -12 80 -16 19 -5 49 -11 65 -14 17 -3 64 -17 106 -30
349 -111 667 -396 828 -741 52 -111 103 -276 116 -373 1 -15 6 -48 10 -75 12
-82 12 -238 -2 -335 -49 -361 -188 -631 -449 -872 -60 -56 -150 -125 -226
-173 -66 -42 -198 -109 -198 -100 0 3 -6 1 -12 -4 -27 -21 -207 -72 -313 -88
-69 -10 -187 -16 -207 -9 -17 5 -18 16 -16 141 3 112 6 136 18 138 8 1 46 5
84 9 409 39 760 282 936 650 77 163 108 306 104 496 -2 122 -7 168 -29 266
-80 352 -377 676 -727 795 -223 75 -503 76 -733 3 -84 -27 -226 -101 -298
-155 -306 -230 -466 -547 -464 -917 0 -70 4 -143 8 -162 4 -19 10 -48 12 -65
7 -45 42 -153 72 -219 31 -70 113 -213 126 -222 6 -3 46 31 89 75 44 45 84 81
89 81 22 0 20 39 -4 81 -99 179 -142 402 -108 569 38 186 117 340 239 465 96
99 189 157 319 200 104 34 116 35 275 40 117 3 147 0 226 -20 149 -38 263
-104 376 -217 106 -104 207 -277 232 -393 3 -16 9 -41 12 -55 11 -42 13 -243
4 -290 -17 -82 -20 -95 -37 -150 -18 -60 -71 -165 -111 -220 -39 -54 -161
-172 -215 -208 -122 -81 -247 -126 -385 -137 -108 -8 -107 -10 -106 137 0 69
4 129 7 136 4 6 31 11 60 11 207 0 431 192 491 419 22 83 18 220 -9 308 -71
229 -282 390 -523 400 -110 5 -162 -6 -261 -54 -128 -62 -240 -194 -292 -342
-34 -99 -32 -239 5 -354 16 -47 34 -86 40 -86 7 0 55 43 108 95 l96 95 -3 59
c-2 44 3 74 21 116 119 294 550 201 546 -117 -2 -155 -147 -284 -306 -272 -26
2 -54 1 -61 -3 -7 -5 -158 -150 -335 -323 -177 -173 -355 -347 -396 -387 -91
-89 -97 -92 -138 -79 -25 7 -40 22 -60 60 -14 28 -60 98 -102 156 -128 179
-203 334 -249 515 -34 133 -40 191 -38 363 1 167 1 168 14 230 5 23 12 59 15
80 19 117 114 339 206 477 65 99 316 355 347 355 5 0 11 4 13 8 4 12 161 105
218 130 99 44 188 77 236 86 10 2 37 9 59 14 22 6 65 14 95 17 30 4 56 8 58
10 6 5 309 -3 352 -9z"/>
</g>
</svg>
